<svg width="506" height="415" viewBox="0 0 506 415" xmlns="http://www.w3.org/2000/svg">
<path fill-rule="evenodd" clip-rule="evenodd" d="M341 0.370086C297.958 3.67109 260.563 35.6271 249.409 78.6411C247.336 86.6331 246.783 91.2521 246.658 101.641C246.571 108.791 246.873 117.678 247.33 121.391L248.159 128.141H243.8C237.588 128.141 216.753 125.46 204.318 123.06C192.61 120.801 174.244 115.708 161.67 111.234C117.576 95.5471 73.09 65.7151 42.223 31.1351C37.072 25.3631 32.535 20.5231 32.142 20.3791C31.151 20.0151 26.226 30.2321 23.339 38.6411C13.944 66.0071 17.361 98.9911 32.153 123.707C39.864 136.591 50.526 148.495 60.307 155.141C62.331 156.516 63.989 158.011 63.993 158.463C64 159.338 56.075 158.661 47 157.012C40.343 155.803 29.777 152.498 25 150.132C23.075 149.178 20.418 148.063 19.097 147.653L16.693 146.909L17.375 155.086C19.526 180.877 30.566 203.848 49.586 222.108C62.661 234.66 75.371 242.101 92.454 247.203C101.929 250.033 101.913 250.2 92 252.005C82.601 253.716 70.841 254.207 62.501 253.237C58.101 252.725 54.345 252.462 54.154 252.653C53.459 253.348 62.863 272.051 67.031 278.264C73.411 287.774 88.13 301.904 97.925 307.923C112.532 316.899 128.204 322.31 143.793 323.758C147.757 324.127 150.987 324.701 150.971 325.035C150.873 327.067 125.662 343.001 113.5 348.718C82.737 363.177 54.953 369.346 19.75 369.535C8.888 369.593 0 369.702 0 369.777C0 370.267 15.212 378.758 23.701 383.006C66.064 404.203 109.128 414.243 157.48 414.193C183.31 414.167 199.275 412.666 221.748 408.149C295.416 393.342 359.707 349.822 402.725 285.641C436.281 235.576 454.948 175.541 454.989 117.551L455 102.462L461.25 97.6231C475.912 86.2701 490.918 70.8331 501.978 55.7251C505.03 51.5561 505.746 50.0271 504.404 50.5481C488.085 56.8891 465.357 63.0111 452 64.6651L446.5 65.3471L453.5 60.3681C468.851 49.4501 482.644 32.5371 489.547 16.1691L492.908 8.20109L482.204 13.5711C467.24 21.0791 455.153 25.6771 440.185 29.5561L427.322 32.8891L420.411 26.8391C397.422 6.71108 371.401 -1.96191 341 0.370086Z"/>
</svg>
